Coordinates
version=1
nRows=14
nColumns=24
inDegrees=yes

Units are S.I. units (second, meters, Newtons, ...)
Angles are in degrees.

endheader
time	pelvis_tilt	pelvis_list	pelvis_rotation	pelvis_tx	pelvis_ty	pelvis_tz	hip_flexion_r	hip_adduction_r	hip_rotation_r	knee_angle_r	ankle_angle_r	subtalar_angle_r	mtp_angle_r	hip_flexion_l	hip_adduction_l	hip_rotation_l	knee_angle_l	ankle_angle_l	subtalar_angle_l	mtp_angle_l	lumbar_extension	lumbar_bending	lumbar_rotation
      1.37900000	     -3.74002892	     -9.88445666	     -8.81529295	      0.83721045	      0.96234948	      0.37042327	    -15.76293128	     10.61754479	     -1.35908361	     -8.53037823	     12.87823421	      0.32534203	      1.11641933	     35.23834250	    -14.30778206	    -12.00745745	      2.68615283	      2.54541750	     -5.37387006	     -4.31081036	     -8.37242245	     10.58724378	     10.13950471
      1.38316667	     -3.75418696	     -9.85667989	     -9.25860955	      0.84291156	      0.96139806	      0.37133683	    -16.02336213	     10.40791280	     -0.99027318	     -8.77109986	     12.97169077	      0.51611019	      1.30541713	     35.26982368	    -14.61780632	    -12.01867551	      2.05052158	      2.93259060	     -5.32503034	     -4.30390830	     -8.43366036	     10.37762332	     10.58214633
      1.38733333	     -3.75484534	     -9.75939854	     -9.71571243	      0.84882718	      0.96054937	      0.37232827	    -16.31200576	     10.12127197	     -0.62103319	     -8.96131021	     12.88176397	      0.56176393	      1.62987095	     35.22938961	    -14.87169064	    -12.11375065	      1.43946276	      3.35318686	     -5.20134717	     -4.29664342	     -8.45674960	     10.06165629	     11.00024795
      1.39150000	     -3.75406038	     -9.70095173	    -10.11149872	      0.85474410	      0.95964872	      0.37310430	    -16.59332846	      9.87298988	     -0.33511608	     -9.16737040	     12.84176388	      0.71318664	      1.97872009	     35.21514977	    -15.11544868	    -12.09341153	      0.76987769	      3.78075933	     -5.14207141	     -4.29285951	     -8.48653484	      9.81971636	     11.30587418
      1.39566667	     -3.75121748	     -9.66564326	    -10.46689371	      0.86068111	      0.95872727	      0.37373485	    -16.87346107	      9.64772598	     -0.08652697	     -9.37980485	     12.82587514	      0.89937471	      2.17546271	     35.19573188	    -15.34390777	    -11.95840911	      0.09448234	      4.17804728	     -5.21628095	     -4.29213615	     -8.51810912	      9.62548217	     11.47788845
      1.39983333	     -3.76005243	     -9.57339440	    -10.89746793	      0.86672984	      0.95789124	      0.37451687	    -17.12023004	      9.34394581	      0.18983814	     -9.61818214	     12.70324078	      1.03353519	      2.52832280	     35.13842492	    -15.56939978	    -12.02766003	     -0.58506168	      4.60219611	     -5.06448668	     -4.29358441	     -8.52290919	      9.33892853	     11.86395061
      1.40400000	     -3.74722136	     -9.50239343	    -11.30192897	      0.87281545	      0.95708651	      0.37520448	    -17.39495556	      9.05563036	      0.46183854	     -9.84493115	     12.58241935	      1.18176744	      2.94494939	     35.04983892	    -15.78816038	    -12.05785944	     -1.25970962	      4.99368204	     -4.95310320	     -4.29364788	     -8.55012096	      9.08662842	     12.17889044
      1.40816667	     -3.73366855	     -9.41641728	    -11.70205764	      0.87895764	      0.95631312	      0.37583447	    -17.65440383	      8.74310281	      0.69997608	    -10.09033325	     12.44874536	      1.35937080	      3.42392621	     34.93186079	    -15.97923339	    -12.08792375	     -1.90989338	      5.32663576	     -4.88044382	     -4.29083837	     -8.56794808	      8.82236256	     12.48336309
      1.41233333	     -3.73184346	     -9.36673414	    -12.04316470	      0.88513510	      0.95549006	      0.37627883	    -17.90650078	      8.47464986	      0.89253822	    -10.32758561	     12.32628196	      1.60257741	      3.70117220	     34.84532387	    -16.15720492	    -12.03738578	     -2.57759395	      5.62275716	     -4.86709468	     -4.28405583	     -8.56939409	      8.62562751	     12.65293143
      1.41650000	     -3.76210116	     -9.29020884	    -12.32849492	      0.89144847	      0.95461709	      0.37655841	    -18.11374677	      8.19350845	      0.98831367	    -10.56445622	     12.06795289	      1.74132136	      3.76818981	     34.77934111	    -16.26079752	    -11.91753401	     -3.20052054	      5.85513448	     -4.95530251	     -4.27851887	     -8.49948974	      8.42061826	     12.69883752
      1.42066667	     -3.70676911	     -9.15280931	    -12.83836188	      0.89772513	      0.95411552	      0.37740546	    -18.37798422	      7.78240139	      1.35497802	    -10.85244093	     11.85147955	      1.83534396	      4.45063008	     34.51438023	    -16.46085084	    -12.29548634	     -3.80006924	      6.08620853	     -4.63443947	     -4.24677371	     -8.55439525	      8.05043003	     13.29273344
      1.42483333	     -3.71833625	     -9.06971399	    -13.15454010	      0.90405145	      0.95335726	      0.37764284	    -18.55141876	      7.46012867	      1.41880015	    -11.17703316	     11.66574941	      2.20782334	      4.81025250	     34.39560719	    -16.56420116	    -12.34121146	     -4.39533473	      6.16594804	     -4.60737845	     -4.21510245	     -8.52545819	      7.84313076	     13.43108626
      1.42900000	     -3.67362563	     -8.96225080	    -13.47202314	      0.91046763	      0.95277743	      0.37794301	    -18.78816683	      7.10549190	      1.52577136	    -11.45322037	     11.25932283	      2.26045067	     12.09064151	     34.17840475	    -16.63811759	    -12.47540544	     -4.94218342	      6.22033947	     -4.52165957	     -3.42267953	     -8.54049217	      7.57294014	     13.61265203
      1.43316667	     -3.72003642	     -8.84499640	    -13.78406684	      0.91691587	      0.95207056	      0.37815190	    -18.89850522	      6.75965907	      1.61682152	    -11.79811228	     10.95999110	      2.47699914	     12.12645693	     34.05928056	    -16.69359011	    -12.57188131	     -5.45793110	      6.11513749	     -4.60651126	     -3.41040198	     -8.44006222	      7.32910859	     13.78723211
